<svg xmlns="http://www.w3.org/2000/svg" width="32" height="32" viewBox="0 0 135.467 135.467">
<style>
.triangle {
  fill: none;
  fill-opacity:1;
  stroke:#000;
  stroke-width:0;
  stroke-linecap:butt;
  stroke-linejoin:miter;
  stroke-miterlimit:5;
  stroke-dasharray:none;
  stroke-opacity:1;
}
.light {
  fill:#fff;
  fill-opacity:.5;
}
.dark {
  fill:#000;fill-opacity:.2;
}
</style>
  <path d="m97.38 135.323 14.389-15.237-5.58-5.422z" class="triangle" style="fill:#e30942;" transform="translate(-131.865 -193.018) scale(2.2435)"/>
  <path d="m97.38 135.323 8.81-20.659 1.198 1.152-8.073 17.286z" class="light" transform="translate(-131.865 -193.018) scale(2.2435)"/>
  <path d="m97.38 135.323 14.389-15.237-5.58-5.422z" class="triangle" transform="translate(-131.865 -193.018) scale(2.2435)"/>
  <path d="m102.35 124.016 2.986 3.088.97-1.08-3.647-3.349z" class="dark" transform="translate(-131.865 -193.018) scale(2.2435)"/>
  <g>
    <path d="m64.37 102.618 20.534 20.684-8.769 8.429z" class="triangle" style="fill:#00c3ffff;" transform="translate(-131.865 -193.018) scale(2.2435)"/>
    <path d="m64.37 102.618 11.765 29.113 1.221-1.144-10.93-25.949-2.057-2.02" class="light" transform="translate(-131.865 -193.018) scale(2.2435)"/>
    <path d="m64.37 102.618 20.534 20.684-8.769 8.429z" class="triangle" transform="translate(-131.865 -193.018) scale(2.2435)"/>
  </g>
  <g>
    <path d="m112.234 96.352-27.33 26.95-10.469-10.767Z" class="triangle" style="fill:#50dd3e;" transform="translate(-131.865 -193.018) scale(2.2435)"/>
    <path d="m74.435 112.535 1.4 1.378 33.494-14.516 2.905-3.045z" class="light" transform="translate(-131.865 -193.018) scale(2.2435)"/>
    <path d="m112.234 96.352-27.33 26.95-10.469-10.767Z" class="triangle" transform="translate(-131.865 -193.018) scale(2.2435)"/>
    <path d="m74.435 112.535 10.469 10.767 1.577-1.439-10.176-10.092z" class="dark" transform="translate(-131.865 -193.018) scale(2.2435)"/>
  </g>
  <g>
    <path d="m111.713 133.172-16.426-15.71-6.402 6.59z" class="triangle" style="fill:#de890a;" transform="translate(-131.865 -193.018) scale(2.2435)"/>
    <path d="m88.885 124.052 22.828 9.12-2.235-2.162-19.319-8.195-.18-.028z" class="light" transform="translate(-131.865 -193.018) scale(2.2435)"/>
    <path d="m111.713 133.172-16.426-15.71-6.402 6.59z" class="triangle" transform="translate(-131.865 -193.018) scale(2.2435)"/>
  </g>
</svg>
